<?xml version="1.0" standalone="no"?>
<svg xmlns:xlink="http://www.w3.org/1999/xlink" xmlns="http://www.w3.org/2000/svg" style="left: 0px; top: 0px; width: 100%; height: 100%; display: block; min-width: 737px; height: 857px;" data-spm-anchor-id="5176.12698720.0.i0.58604175dyk2My"><g><g/><g><g transform="translate(0.5,0.5)" style="visibility: visible;"><ellipse cx="416" cy="20" rx="20" ry="20" fill="#fdf7e9" stroke="#d6b656" pointer-events="all"/></g><g style=""><g fill="black" font-family="Arial,Helvetica" text-anchor="middle" font-size="11px"><text x="416" y="23.5">Start</text></g></g><g transform="translate(0.5,0.5)" style="visibility: visible; cursor: move;"><ellipse cx="416" cy="836" rx="20" ry="20" fill="#fdf7e9" stroke="#d6b656" pointer-events="all"/></g><g style="cursor: move;"><g fill="black" font-family="Arial,Helvetica" text-anchor="middle" font-size="11px"><text x="416" y="839.11">End</text></g></g><g transform="translate(0.5,0.5)" style="visibility: visible;"><rect x="361" y="70" width="110" height="40" rx="4" ry="4" fill="#d5e8d4" stroke="#82b366" pointer-events="all"/></g><g style=""><g fill="#774400" font-family="Arial,Helvetica" text-anchor="middle" font-size="11px"><text x="416" y="93.5">fastqSplit_00000001</text></g></g><g transform="translate(0.5,0.5)" style="visibility: visible; cursor: move;"><rect x="96" y="155.61" width="640" height="350" rx="42" ry="42" fill="#ffffff" stroke="#9d9d9d" stroke-dasharray="3 3" pointer-events="all"/></g><g style="cursor: move;"><g fill="black" font-family="Arial,Helvetica" text-anchor="middle" font-size="11px"><text x="416" y="149.61">myparallel</text></g></g><g style="cursor: pointer; visibility: visible;"><image x="101" y="160" width="9" height="9" xmlns:xlink="http://www.w3.org/1999/xlink" xlink:href="https://g.alicdn.com/serverless/fnf-console-frontend/0.0.1/static/mxgraph/images/expanded.gif" preserveAspectRatio="none"/></g><g transform="translate(0.5,0.5)" style="visibility: visible;"><rect x="393.5" y="170.61" width="45" height="40" rx="6" ry="6" fill="#ffffff" stroke="#9d9d9d" stroke-dasharray="3 3" pointer-events="all"/></g><g style=""><g fill="#774400" font-family="Arial,Helvetica" text-anchor="middle" font-size="11px"><text x="416" y="194.11">parallel</text></g></g><g transform="translate(0.5,0.5)" style="visibility: visible;"><rect x="111" y="240.61" width="130" height="40" rx="4" ry="4" fill="#d5e8d4" stroke="#82b366" pointer-events="all"/></g><g style=""><g fill="#774400" font-family="Arial,Helvetica" text-anchor="middle" font-size="11px"><text x="176" y="264.11">filterContams_00000002</text></g></g><g transform="translate(0.5,0.5)" style="visibility: visible;"><rect x="119.82" y="310.61" width="119" height="40" rx="4" ry="4" fill="#d5e8d4" stroke="#82b366" pointer-events="all"/></g><g style=""><g fill="#774400" font-family="Arial,Helvetica" text-anchor="middle" font-size="11px"><text x="179.32" y="334.11">sol2sanger_00000003</text></g></g><g transform="translate(0.5,0.5)" style="visibility: visible;"><rect x="128.98" y="380.61" width="104" height="40" rx="4" ry="4" fill="#d5e8d4" stroke="#82b366" pointer-events="all"/></g><g style=""><g fill="#774400" font-family="Arial,Helvetica" text-anchor="middle" font-size="11px"><text x="180.98" y="404.11">fast2bfq_00000004</text></g></g><g transform="translate(0.5,0.5)" style="visibility: visible; cursor: move;"><rect x="137.48" y="450.61" width="87" height="40" rx="4" ry="4" fill="#d5e8d4" stroke="#82b366" pointer-events="all"/></g><g style="cursor: move;"><g fill="#774400" font-family="Arial,Helvetica" text-anchor="middle" font-size="11px"><text x="180.98" y="474.11">map_00000005</text></g></g><g transform="translate(0.5,0.5)" style="visibility: visible; cursor: move;"><rect x="271" y="240.61" width="130" height="40" rx="4" ry="4" fill="#d5e8d4" stroke="#82b366" pointer-events="all"/></g><g style="cursor: move;"><g fill="#774400" font-family="Arial,Helvetica" text-anchor="middle" font-size="11px"><text x="336" y="264.11">filterContams_00000006</text></g></g><g transform="translate(0.5,0.5)" style="visibility: visible;"><rect x="280.06" y="310.61" width="119" height="40" rx="4" ry="4" fill="#d5e8d4" stroke="#82b366" pointer-events="all"/></g><g style=""><g fill="#774400" font-family="Arial,Helvetica" text-anchor="middle" font-size="11px"><text x="339.56" y="334.11">sol2sanger_00000007</text></g></g><g transform="translate(0.5,0.5)" style="visibility: visible;"><rect x="289.34" y="380.61" width="104" height="40" rx="4" ry="4" fill="#d5e8d4" stroke="#82b366" pointer-events="all"/></g><g style=""><g fill="#774400" font-family="Arial,Helvetica" text-anchor="middle" font-size="11px"><text x="341.34" y="404.11">fast2bfq_00000008</text></g></g><g transform="translate(0.5,0.5)" style="visibility: visible; cursor: move;"><rect x="297.84" y="450.61" width="87" height="40" rx="4" ry="4" fill="#d5e8d4" stroke="#82b366" pointer-events="all"/></g><g style="cursor: move;"><g fill="#774400" font-family="Arial,Helvetica" text-anchor="middle" font-size="11px"><text x="341.34" y="474.11">map_00000009</text></g></g><g transform="translate(0.5,0.5)" style="visibility: visible;"><rect x="431" y="240.61" width="130" height="40" rx="4" ry="4" fill="#d5e8d4" stroke="#82b366" pointer-events="all"/></g><g style=""><g fill="#774400" font-family="Arial,Helvetica" text-anchor="middle" font-size="11px"><text x="496" y="264.11">filterContams_00000010</text></g></g><g transform="translate(0.5,0.5)" style="visibility: visible;"><rect x="431.5" y="310.61" width="118" height="40" rx="4" ry="4" fill="#d5e8d4" stroke="#82b366" pointer-events="all"/></g><g style=""><g fill="#774400" font-family="Arial,Helvetica" text-anchor="middle" font-size="11px"><text x="490.5" y="334.11">sol2sanger_00000011</text></g></g><g transform="translate(0.5,0.5)" style="visibility: visible;"><rect x="431" y="380.61" width="104" height="40" rx="4" ry="4" fill="#d5e8d4" stroke="#82b366" pointer-events="all"/></g><g style=""><g fill="#774400" font-family="Arial,Helvetica" text-anchor="middle" font-size="11px"><text x="483" y="404.11">fast2bfq_00000012</text></g></g><g transform="translate(0.5,0.5)" style="visibility: visible; cursor: move;"><rect x="431" y="450.61" width="87" height="40" rx="4" ry="4" fill="#d5e8d4" stroke="#82b366" pointer-events="all"/></g><g style="cursor: move;"><g fill="#774400" font-family="Arial,Helvetica" text-anchor="middle" font-size="11px"><text x="474.5" y="474.11">map_00000013</text></g></g><g transform="translate(0.5,0.5)" style="visibility: visible;"><rect x="591" y="240.61" width="130" height="40" rx="4" ry="4" fill="#d5e8d4" stroke="#82b366" pointer-events="all"/></g><g style=""><g fill="#774400" font-family="Arial,Helvetica" text-anchor="middle" font-size="11px"><text x="656" y="264.11">filterContams_00000014</text></g></g><g transform="translate(0.5,0.5)" style="visibility: visible; cursor: move;"><rect x="593.18" y="310.61" width="119" height="40" rx="4" ry="4" fill="#d5e8d4" stroke="#82b366" pointer-events="all"/></g><g style="cursor: move;"><g fill="#774400" font-family="Arial,Helvetica" text-anchor="middle" font-size="11px"><text x="652.68" y="334.11">sol2sanger_00000015</text></g></g><g transform="translate(0.5,0.5)" style="visibility: visible;"><rect x="599.02" y="380.61" width="104" height="40" rx="4" ry="4" fill="#d5e8d4" stroke="#82b366" pointer-events="all"/></g><g style=""><g fill="#774400" font-family="Arial,Helvetica" text-anchor="middle" font-size="11px"><text x="651.02" y="404.11">fast2bfq_00000016</text></g></g><g transform="translate(0.5,0.5)" style="visibility: visible; cursor: move;"><rect x="607.52" y="450.61" width="87" height="40" rx="4" ry="4" fill="#d5e8d4" stroke="#82b366" pointer-events="all"/></g><g style="cursor: move;"><g fill="#774400" font-family="Arial,Helvetica" text-anchor="middle" font-size="11px"><text x="651.02" y="474.11">map_00000017</text></g></g><g transform="translate(0.5,0.5)" style="visibility: visible;"><path d="M 176 280.61 Q 176 292.61 177.66 295.61 Q 179.32 298.61 179.32 304.24" fill="none" stroke="white" stroke-miterlimit="10" pointer-events="stroke" visibility="hidden" stroke-width="9"/><path d="M 176 280.61 Q 176 292.61 177.66 295.61 Q 179.32 298.61 179.32 304.24" fill="none" stroke="#6482b9" stroke-miterlimit="10"/><path d="M 179.32 309.49 L 175.82 302.49 L 179.32 304.24 L 182.82 302.49 Z" fill="#6482b9" stroke="#6482b9" stroke-miterlimit="10" pointer-events="all"/></g><g transform="translate(0.5,0.5)" style="visibility: visible;"><path d="M 179.32 350.61 Q 179.32 362.61 180.15 365.61 Q 180.98 368.61 180.98 374.24" fill="none" stroke="white" stroke-miterlimit="10" pointer-events="stroke" visibility="hidden" stroke-width="9"/><path d="M 179.32 350.61 Q 179.32 362.61 180.15 365.61 Q 180.98 368.61 180.98 374.24" fill="none" stroke="#6482b9" stroke-miterlimit="10"/><path d="M 180.98 379.49 L 177.48 372.49 L 180.98 374.24 L 184.48 372.49 Z" fill="#6482b9" stroke="#6482b9" stroke-miterlimit="10" pointer-events="all"/></g><g transform="translate(0.5,0.5)" style="visibility: visible;"><path d="M 180.98 420.61 Q 180.98 432.61 180.98 435.61 Q 180.98 438.61 180.98 444.24" fill="none" stroke="white" stroke-miterlimit="10" pointer-events="stroke" visibility="hidden" stroke-width="9"/><path d="M 180.98 420.61 Q 180.98 432.61 180.98 435.61 Q 180.98 438.61 180.98 444.24" fill="none" stroke="#6482b9" stroke-miterlimit="10"/><path d="M 180.98 449.49 L 177.48 442.49 L 180.98 444.24 L 184.48 442.49 Z" fill="#6482b9" stroke="#6482b9" stroke-miterlimit="10" pointer-events="all"/></g><g transform="translate(0.5,0.5)" style="visibility: visible; cursor: move;"><path d="M 402.88 210.61 Q 402.88 222.61 289.44 225.61 Q 176 228.61 176 234.24" fill="none" stroke="white" stroke-miterlimit="10" pointer-events="stroke" visibility="hidden" stroke-width="9"/><path d="M 402.88 210.61 Q 402.88 222.61 289.44 225.61 Q 176 228.61 176 234.24" fill="none" stroke="#6482b9" stroke-miterlimit="10"/><path d="M 176 239.49 L 172.5 232.49 L 176 234.24 L 179.5 232.49 Z" fill="#6482b9" stroke="#6482b9" stroke-miterlimit="10" pointer-events="all"/></g><g transform="translate(0.5,0.5)" style="visibility: visible;"><path d="M 336 280.61 Q 336 292.61 337.78 295.61 Q 339.56 298.61 339.56 304.24" fill="none" stroke="white" stroke-miterlimit="10" pointer-events="stroke" visibility="hidden" stroke-width="9"/><path d="M 336 280.61 Q 336 292.61 337.78 295.61 Q 339.56 298.61 339.56 304.24" fill="none" stroke="#6482b9" stroke-miterlimit="10"/><path d="M 339.56 309.49 L 336.06 302.49 L 339.56 304.24 L 343.06 302.49 Z" fill="#6482b9" stroke="#6482b9" stroke-miterlimit="10" pointer-events="all"/></g><g transform="translate(0.5,0.5)" style="visibility: visible;"><path d="M 339.56 350.61 Q 339.56 362.61 340.45 365.61 Q 341.34 368.61 341.34 374.24" fill="none" stroke="white" stroke-miterlimit="10" pointer-events="stroke" visibility="hidden" stroke-width="9"/><path d="M 339.56 350.61 Q 339.56 362.61 340.45 365.61 Q 341.34 368.61 341.34 374.24" fill="none" stroke="#6482b9" stroke-miterlimit="10"/><path d="M 341.34 379.49 L 337.84 372.49 L 341.34 374.24 L 344.84 372.49 Z" fill="#6482b9" stroke="#6482b9" stroke-miterlimit="10" pointer-events="all"/></g><g transform="translate(0.5,0.5)" style="visibility: visible;"><path d="M 341.34 420.61 Q 341.34 432.61 341.34 435.61 Q 341.34 438.61 341.34 444.24" fill="none" stroke="white" stroke-miterlimit="10" pointer-events="stroke" visibility="hidden" stroke-width="9"/><path d="M 341.34 420.61 Q 341.34 432.61 341.34 435.61 Q 341.34 438.61 341.34 444.24" fill="none" stroke="#6482b9" stroke-miterlimit="10"/><path d="M 341.34 449.49 L 337.84 442.49 L 341.34 444.24 L 344.84 442.49 Z" fill="#6482b9" stroke="#6482b9" stroke-miterlimit="10" pointer-events="all"/></g><g transform="translate(0.5,0.5)" style="visibility: visible;"><path d="M 411.63 210.61 Q 411.63 224.61 373.81 226.61 Q 336 228.61 336 234.24" fill="none" stroke="white" stroke-miterlimit="10" pointer-events="stroke" visibility="hidden" stroke-width="9"/><path d="M 411.63 210.61 Q 411.63 224.61 373.81 226.61 Q 336 228.61 336 234.24" fill="none" stroke="#6482b9" stroke-miterlimit="10"/><path d="M 336 239.49 L 332.5 232.49 L 336 234.24 L 339.5 232.49 Z" fill="#6482b9" stroke="#6482b9" stroke-miterlimit="10" pointer-events="all"/></g><g transform="translate(0.5,0.5)" style="visibility: visible;"><path d="M 496 280.61 Q 496 292.61 493.25 295.61 Q 490.5 298.61 490.5 304.24" fill="none" stroke="white" stroke-miterlimit="10" pointer-events="stroke" visibility="hidden" stroke-width="9"/><path d="M 496 280.61 Q 496 292.61 493.25 295.61 Q 490.5 298.61 490.5 304.24" fill="none" stroke="#6482b9" stroke-miterlimit="10"/><path d="M 490.5 309.49 L 487 302.49 L 490.5 304.24 L 494 302.49 Z" fill="#6482b9" stroke="#6482b9" stroke-miterlimit="10" pointer-events="all"/></g><g transform="translate(0.5,0.5)" style="visibility: visible;"><path d="M 490.5 350.61 Q 490.5 362.61 486.75 365.61 Q 483 368.61 483 374.24" fill="none" stroke="white" stroke-miterlimit="10" pointer-events="stroke" visibility="hidden" stroke-width="9"/><path d="M 490.5 350.61 Q 490.5 362.61 486.75 365.61 Q 483 368.61 483 374.24" fill="none" stroke="#6482b9" stroke-miterlimit="10"/><path d="M 483 379.49 L 479.5 372.49 L 483 374.24 L 486.5 372.49 Z" fill="#6482b9" stroke="#6482b9" stroke-miterlimit="10" pointer-events="all"/></g><g transform="translate(0.5,0.5)" style="visibility: visible;"><path d="M 483 420.61 Q 483 432.61 478.75 435.61 Q 474.5 438.61 474.5 444.24" fill="none" stroke="white" stroke-miterlimit="10" pointer-events="stroke" visibility="hidden" stroke-width="9"/><path d="M 483 420.61 Q 483 432.61 478.75 435.61 Q 474.5 438.61 474.5 444.24" fill="none" stroke="#6482b9" stroke-miterlimit="10"/><path d="M 474.5 449.49 L 471 442.49 L 474.5 444.24 L 478 442.49 Z" fill="#6482b9" stroke="#6482b9" stroke-miterlimit="10" pointer-events="all"/></g><g transform="translate(0.5,0.5)" style="visibility: visible;"><path d="M 420.38 210.61 Q 420.38 224.61 458.19 226.61 Q 496 228.61 496 234.24" fill="none" stroke="white" stroke-miterlimit="10" pointer-events="stroke" visibility="hidden" stroke-width="9"/><path d="M 420.38 210.61 Q 420.38 224.61 458.19 226.61 Q 496 228.61 496 234.24" fill="none" stroke="#6482b9" stroke-miterlimit="10"/><path d="M 496 239.49 L 492.5 232.49 L 496 234.24 L 499.5 232.49 Z" fill="#6482b9" stroke="#6482b9" stroke-miterlimit="10" pointer-events="all"/></g><g transform="translate(0.5,0.5)" style="visibility: visible;"><path d="M 656 280.61 Q 656 292.61 654.34 295.61 Q 652.68 298.61 652.68 304.24" fill="none" stroke="white" stroke-miterlimit="10" pointer-events="stroke" visibility="hidden" stroke-width="9"/><path d="M 656 280.61 Q 656 292.61 654.34 295.61 Q 652.68 298.61 652.68 304.24" fill="none" stroke="#6482b9" stroke-miterlimit="10"/><path d="M 652.68 309.49 L 649.18 302.49 L 652.68 304.24 L 656.18 302.49 Z" fill="#6482b9" stroke="#6482b9" stroke-miterlimit="10" pointer-events="all"/></g><g transform="translate(0.5,0.5)" style="visibility: visible;"><path d="M 652.68 350.61 Q 652.68 362.61 651.85 365.61 Q 651.02 368.61 651.02 374.24" fill="none" stroke="white" stroke-miterlimit="10" pointer-events="stroke" visibility="hidden" stroke-width="9"/><path d="M 652.68 350.61 Q 652.68 362.61 651.85 365.61 Q 651.02 368.61 651.02 374.24" fill="none" stroke="#6482b9" stroke-miterlimit="10"/><path d="M 651.02 379.49 L 647.52 372.49 L 651.02 374.24 L 654.52 372.49 Z" fill="#6482b9" stroke="#6482b9" stroke-miterlimit="10" pointer-events="all"/></g><g transform="translate(0.5,0.5)" style="visibility: visible;"><path d="M 651.02 420.61 Q 651.02 432.61 651.02 435.61 Q 651.02 438.61 651.02 444.24" fill="none" stroke="white" stroke-miterlimit="10" pointer-events="stroke" visibility="hidden" stroke-width="9"/><path d="M 651.02 420.61 Q 651.02 432.61 651.02 435.61 Q 651.02 438.61 651.02 444.24" fill="none" stroke="#6482b9" stroke-miterlimit="10"/><path d="M 651.02 449.49 L 647.52 442.49 L 651.02 444.24 L 654.52 442.49 Z" fill="#6482b9" stroke="#6482b9" stroke-miterlimit="10" pointer-events="all"/></g><g transform="translate(0.5,0.5)" style="visibility: visible;"><path d="M 429.13 210.61 Q 429.13 222.61 542.56 225.61 Q 656 228.61 656 234.24" fill="none" stroke="white" stroke-miterlimit="10" pointer-events="stroke" visibility="hidden" stroke-width="9"/><path d="M 429.13 210.61 Q 429.13 222.61 542.56 225.61 Q 656 228.61 656 234.24" fill="none" stroke="#6482b9" stroke-miterlimit="10"/><path d="M 656 239.49 L 652.5 232.49 L 656 234.24 L 659.5 232.49 Z" fill="#6482b9" stroke="#6482b9" stroke-miterlimit="10" pointer-events="all"/></g><g transform="translate(0.5,0.5)" style="visibility: visible;"><rect x="357" y="535.61" width="118" height="40" rx="4" ry="4" fill="#d5e8d4" stroke="#82b366" pointer-events="all"/></g><g style=""><g fill="#774400" font-family="Arial,Helvetica" text-anchor="middle" font-size="11px"><text x="416" y="559.11">mapMerge_00000018</text></g></g><g transform="translate(0.5,0.5)" style="visibility: visible;"><rect x="357" y="605.61" width="118" height="40" rx="4" ry="4" fill="#d5e8d4" stroke="#82b366" pointer-events="all"/></g><g style=""><g fill="#774400" font-family="Arial,Helvetica" text-anchor="middle" font-size="11px"><text x="416" y="629.11">mapMerge_00000019</text></g></g><g transform="translate(0.5,0.5)" style="visibility: visible;"><rect x="370" y="675.61" width="92" height="40" rx="4" ry="4" fill="#d5e8d4" stroke="#82b366" pointer-events="all"/></g><g style=""><g fill="#774400" font-family="Arial,Helvetica" text-anchor="middle" font-size="11px"><text x="416" y="699.11">chr21_00000020</text></g></g><g transform="translate(0.5,0.5)" style="visibility: visible; cursor: move;"><rect x="368.5" y="745.61" width="95" height="40" rx="4" ry="4" fill="#d5e8d4" stroke="#82b366" pointer-events="all"/></g><g style="cursor: move;"><g fill="#774400" font-family="Arial,Helvetica" text-anchor="middle" font-size="11px"><text x="416" y="769.11">pileup_00000021</text></g></g><g transform="translate(0.5,0.5)" style="visibility: visible;"><path d="M 416 110 Q 416 122 416 125 Q 416 128 416 149.24" fill="none" stroke="white" stroke-miterlimit="10" pointer-events="stroke" visibility="hidden" stroke-width="9"/><path d="M 416 110 Q 416 122 416 125 Q 416 128 416 149.24" fill="none" stroke="#6482b9" stroke-miterlimit="10"/><path d="M 416 154.49 L 412.5 147.49 L 416 149.24 L 419.5 147.49 Z" fill="#6482b9" stroke="#6482b9" stroke-miterlimit="10" pointer-events="all"/></g><g transform="translate(0.5,0.5)" style="visibility: visible;"><path d="M 416 505.61 Q 416 517.61 416 520.61 Q 416 523.61 416 529.24" fill="none" stroke="white" stroke-miterlimit="10" pointer-events="stroke" visibility="hidden" stroke-width="9"/><path d="M 416 505.61 Q 416 517.61 416 520.61 Q 416 523.61 416 529.24" fill="none" stroke="#6482b9" stroke-miterlimit="10"/><path d="M 416 534.49 L 412.5 527.49 L 416 529.24 L 419.5 527.49 Z" fill="#6482b9" stroke="#6482b9" stroke-miterlimit="10" pointer-events="all"/></g><g transform="translate(0.5,0.5)" style="visibility: visible;"><path d="M 416 575.61 Q 416 587.61 416 590.61 Q 416 593.61 416 599.24" fill="none" stroke="white" stroke-miterlimit="10" pointer-events="stroke" visibility="hidden" stroke-width="9"/><path d="M 416 575.61 Q 416 587.61 416 590.61 Q 416 593.61 416 599.24" fill="none" stroke="#6482b9" stroke-miterlimit="10"/><path d="M 416 604.49 L 412.5 597.49 L 416 599.24 L 419.5 597.49 Z" fill="#6482b9" stroke="#6482b9" stroke-miterlimit="10" pointer-events="all"/></g><g transform="translate(0.5,0.5)" style="visibility: visible;"><path d="M 416 645.61 Q 416 657.61 416 660.61 Q 416 663.61 416 669.24" fill="none" stroke="white" stroke-miterlimit="10" pointer-events="stroke" visibility="hidden" stroke-width="9"/><path d="M 416 645.61 Q 416 657.61 416 660.61 Q 416 663.61 416 669.24" fill="none" stroke="#6482b9" stroke-miterlimit="10"/><path d="M 416 674.49 L 412.5 667.49 L 416 669.24 L 419.5 667.49 Z" fill="#6482b9" stroke="#6482b9" stroke-miterlimit="10" pointer-events="all"/></g><g transform="translate(0.5,0.5)" style="visibility: visible;"><path d="M 416 715.61 Q 416 727.61 416 730.61 Q 416 733.61 416 739.24" fill="none" stroke="white" stroke-miterlimit="10" pointer-events="stroke" visibility="hidden" stroke-width="9"/><path d="M 416 715.61 Q 416 727.61 416 730.61 Q 416 733.61 416 739.24" fill="none" stroke="#6482b9" stroke-miterlimit="10"/><path d="M 416 744.49 L 412.5 737.49 L 416 739.24 L 419.5 737.49 Z" fill="#6482b9" stroke="#6482b9" stroke-miterlimit="10" pointer-events="all"/></g><g transform="translate(0.5,0.5)" style="visibility: visible;"><path d="M 416 785.61 Q 416 797.61 416 800.61 Q 416 803.61 416 809.24" fill="none" stroke="white" stroke-miterlimit="10" pointer-events="stroke" visibility="hidden" stroke-width="9"/><path d="M 416 785.61 Q 416 797.61 416 800.61 Q 416 803.61 416 809.24" fill="none" stroke="#6482b9" stroke-miterlimit="10"/><path d="M 416 814.49 L 412.5 807.49 L 416 809.24 L 419.5 807.49 Z" fill="#6482b9" stroke="#6482b9" stroke-miterlimit="10" pointer-events="all"/></g><g transform="translate(0.5,0.5)" style="visibility: visible;"><path d="M 416 40 Q 416 52 416 55 Q 416 58 416 63.63" fill="none" stroke="white" stroke-miterlimit="10" pointer-events="stroke" visibility="hidden" stroke-width="9"/><path d="M 416 40 Q 416 52 416 55 Q 416 58 416 63.63" fill="none" stroke="#6482b9" stroke-miterlimit="10"/><path d="M 416 68.88 L 412.5 61.88 L 416 63.63 L 419.5 61.88 Z" fill="#6482b9" stroke="#6482b9" stroke-miterlimit="10" pointer-events="all"/></g></g><g/><g/></g></svg>